<?xml version="1.0" standalone="no"?>
<!DOCTYPE svg PUBLIC "-//W3C//DTD SVG 20010904//EN"
 "http://www.w3.org/TR/2001/REC-SVG-20010904/DTD/svg10.dtd">
<svg version="1.0" xmlns="http://www.w3.org/2000/svg"
 width="559.000000pt" height="559.000000pt" viewBox="0 0 559.000000 559.000000"
 preserveAspectRatio="xMidYMid meet">
<metadata>
Created by potrace 1.11, written by Peter Selinger 2001-2013
</metadata>
<g transform="translate(0.000000,559.000000) scale(0.100000,-0.100000)"
fill="#000000" stroke="none">
<path d="M2475 5579 c-27 -4 -72 -10 -100 -14 -206 -28 -479 -108 -695 -203
-736 -325 -1291 -940 -1538 -1704 -38 -116 -84 -304 -97 -393 -3 -23 -7 -50
-9 -60 -4 -23 -17 -131 -22 -190 -6 -72 -6 -369 0 -435 17 -177 34 -281 71
-440 92 -388 283 -774 543 -1098 84 -105 287 -314 367 -377 28 -22 52 -43 55
-46 20 -23 223 -164 323 -223 225 -134 455 -232 697 -297 117 -32 282 -65 375
-75 28 -3 66 -8 85 -11 19 -2 127 -6 240 -8 184 -2 280 2 405 20 22 4 55 8 73
11 142 19 424 95 587 156 81 31 282 128 365 176 99 58 308 203 350 243 8 8 35
30 60 50 77 62 243 230 331 335 335 401 564 923 625 1424 3 30 8 66 10 80 2
14 6 120 8 235 3 231 -5 341 -39 540 -65 370 -209 724 -434 1065 -20 30 -38
57 -41 60 -3 3 -25 32 -49 65 -120 163 -334 381 -507 515 -325 252 -704 432
-1094 519 -118 27 -134 30 -190 37 -25 3 -52 7 -60 9 -8 3 -51 7 -95 10 -44 3
-100 8 -125 10 -52 4 -55 6 125 -65 760 -299 1304 -978 1464 -1830 17 -88 25
-148 36 -255 7 -66 7 -327 0 -390 -9 -83 -17 -131 -31 -199 -9 -39 -17 -80
-19 -90 -6 -25 -54 -174 -65 -201 -112 -265 -223 -434 -412 -627 -122 -124
-246 -234 -255 -225 -3 4 -27 -11 -52 -32 -120 -99 -296 -198 -446 -251 -273
-95 -584 -108 -863 -36 -473 123 -855 474 -1024 941 -33 91 -33 91 -62 245
-26 130 -29 351 -7 495 72 478 330 858 717 1057 82 42 233 101 287 112 84 17
128 25 167 31 25 4 46 8 48 10 2 2 5 59 7 126 2 68 6 201 10 294 3 94 7 229
10 300 2 72 7 220 10 330 4 110 7 218 8 240 1 40 1 40 -39 40 -21 1 -61 -2
-89 -6z"/>
</g>
</svg>
