<?xml version="1.0" standalone="no"?>
<!DOCTYPE svg PUBLIC "-//W3C//DTD SVG 20010904//EN"
 "http://www.w3.org/TR/2001/REC-SVG-20010904/DTD/svg10.dtd">
<svg version="1.0" xmlns="http://www.w3.org/2000/svg"
 width="559.000000pt" height="559.000000pt" viewBox="0 0 559.000000 559.000000"
 preserveAspectRatio="xMidYMid meet">
<metadata>
Created by potrace 1.11, written by Peter Selinger 2001-2013
</metadata>
<g transform="translate(0.000000,559.000000) scale(0.100000,-0.100000)"
fill="#000000" stroke="none">
<path d="M2475 5579 c-27 -4 -72 -10 -100 -14 -85 -11 -274 -55 -395 -92 -294
-89 -603 -246 -855 -436 -463 -349 -817 -848 -988 -1394 -48 -151 -74 -269
-112 -508 -14 -87 -14 -549 1 -660 70 -550 265 -1013 606 -1437 77 -96 255
-282 333 -349 390 -331 839 -549 1320 -639 94 -18 110 -20 205 -31 152 -18
657 -14 689 5 3 2 29 7 56 11 168 22 500 114 660 182 495 211 929 574 1230
1028 77 116 171 286 219 395 16 36 34 79 42 95 63 141 154 485 178 670 28 218
26 596 -5 785 -117 716 -446 1289 -1009 1761 -70 58 -249 181 -361 247 -360
210 -789 338 -1231 366 -20 2 -35 -1 -32 -6 3 -4 10 -8 15 -8 25 0 253 -96
349 -147 126 -66 276 -163 374 -241 97 -77 265 -241 334 -327 31 -38 59 -72
62 -75 3 -3 31 -41 62 -85 220 -315 363 -676 433 -1090 2 -16 7 -55 10 -85 3
-30 8 -71 11 -90 6 -42 6 -328 -1 -385 -9 -85 -17 -131 -31 -199 -9 -39 -17
-81 -20 -92 -2 -12 -22 -74 -44 -138 -91 -264 -224 -476 -432 -688 -117 -120
-239 -228 -257 -228 -6 0 -39 -22 -74 -48 -504 -389 -1182 -420 -1715 -78
-348 223 -588 589 -660 1006 -21 121 -23 354 -3 485 99 656 535 1104 1166
1200 22 3 43 9 47 13 4 4 9 68 12 142 5 123 8 213 21 580 2 69 7 222 10 340 4
118 7 226 8 240 2 23 -2 25 -38 25 -22 1 -62 -2 -90 -6z"/>
</g>
</svg>
